<?xml version="1.0" encoding="UTF-8"?>
<svg id="Laag_1" xmlns="http://www.w3.org/2000/svg" version="1.1" viewBox="0 0 315.46 322">
  <!-- Generator: Adobe Illustrator 30.3.0, SVG Export Plug-In . SVG Version: 2.1.3 Build 182)  -->
  <defs>
    <style>
      .st0 {
        fill: #fff;
      }
    </style>
  </defs>
  <g id="fmMJp7">
    <g>
      <path d="M272.73,224.9c-.02,24.81-20.53,44.62-44.37,44.63l-141.48.04c-22.08,0-43.7-19.32-43.76-41.63l-.39-143.61c2.82-23.88,21.96-42.34,46.39-42.31l139.14.2c25.26.04,44.59,21.82,44.57,46.23l-.1,136.44ZM169.85,188.07l-9.38,15.48,81.38-.17-49.4-72.83c-5.37-7.91-17.54-5.46-22.5,1.18l-6.43,8.61-9.72-9.8c7.34-4.95,9.34-14.69,6.43-22.79-2.54-7.06-10.39-11.08-19.08-11.07h-65.01s.34,58.24.34,58.24c.05,7.71,7.81,12.66,14.4,12.61l21.01-.17c-.53,11.32-.09,20.85,5.94,29.78s21.98,9.8,28.28.35l35.29-52.88,29.2,43.4-40.75.06Z"/>
      <path class="st0" d="M169.85,188.07l40.75-.06-29.2-43.4-35.29,52.88c-6.3,9.44-22.26,8.57-28.28-.35s-6.48-18.46-5.94-29.78l-21.01.17c-6.58.05-14.35-4.9-14.4-12.61l-.34-58.23h65.01c8.69-.01,16.54,4,19.08,11.07,2.91,8.1.91,17.84-6.43,22.79l9.72,9.8,6.43-8.61c4.96-6.64,17.14-9.1,22.5-1.18l49.4,72.83-81.38.17,9.38-15.48ZM137.24,125.47c4.12,0,8.41-3.02,8.55-6.79.16-4.5-4.02-7.56-8.42-7.54l-44.9.15.21,14.15,44.57.02ZM137.53,153.05c2.93.02,7.9-3.23,8.98-5.77s-1.69-9.94-4.78-9.95l-49.1-.15-.09,15.59,44.99.29ZM146.57,167.72l-17.87-.35,2.27,22.01,15.6-21.66Z"/>
      <path d="M137.53,153.05l-44.99-.29.09-15.59,49.1.15c3.09,0,5.85,7.45,4.78,9.95s-6.05,5.79-8.98,5.77Z"/>
      <path d="M137.24,125.47l-44.57-.02-.21-14.15,44.9-.15c4.4-.01,8.59,3.04,8.42,7.54-.14,3.77-4.43,6.79-8.55,6.79Z"/>
      <polygon points="146.57 167.72 130.98 189.39 128.71 167.37 146.57 167.72"/>
    </g>
  </g>
</svg>